<?xml version="1.0" encoding="UTF-8" standalone="no"?>
<svg width="60px" height="60px" viewBox="0 0 60 60" version="1.1" xmlns="http://www.w3.org/2000/svg" xmlns:xlink="http://www.w3.org/1999/xlink">
    <!-- Generator: Sketch 3.8.3 (29802) - http://www.bohemiancoding.com/sketch -->
    <title>Page-1</title>
    <desc>Created with Sketch.</desc>
    <defs></defs>
    <g id="Page-1" stroke="none" stroke-width="1" fill="none" fill-rule="evenodd">
        <g id="angel-icon" transform="translate(0.000000, 1.000000)" fill="#000000" stroke="#201300">
            <g id="Page-1">
                <g id="Desktop">
                    <path d="M59.228956,17.334439 C58.140408,15.491595 38.896176,25.641124 38.896176,25.641124 C38.896176,25.641124 36.469632,26.675616 35.672686,25.269183 C34.618853,23.409477 36.168608,21.921713 36.168608,21.921713 C36.168608,21.921713 40.79853,17.584384 41.623744,14.854832 C42.698406,11.300563 41.561754,8.221882 41.561754,8.221882 C41.375783,6.300186 38.585729,5.804265 38.461748,5.060383 C38.337768,4.316501 38.135928,2.863451 36.788509,2.208834 C34.618853,1.155001 34.060941,2.270824 33.069098,1.960874 C32.578632,1.807634 32.801797,0.300528 30.154072,0 L29.969589,0 C27.321864,0.300528 27.545029,1.807634 27.054563,1.960874 C26.06272,2.270824 25.504808,1.155001 23.335152,2.208834 C21.987237,2.863451 21.785893,4.316501 21.661913,5.060383 C21.537932,5.804265 18.747878,6.300186 18.561907,8.221882 C18.561907,8.221882 17.40641,11.879303 18.499917,14.854832 C19.48333,17.53132 23.955054,21.921713 23.955054,21.921713 C23.955054,21.921713 25.504808,23.409477 24.450975,25.269183 C23.654029,26.675616 21.227485,25.641124 21.227485,25.641124 C21.227485,25.641124 1.983253,15.491595 0.894705,17.334439 C0.088833,18.698223 2.18658,20.557929 2.18658,20.557929 C2.18658,20.557929 3.995702,22.231664 2.18658,22.913556 C1.395586,23.211605 2.871448,24.7078 3.737327,25.385228 C4.231761,25.772543 4.47377,26.396908 4.384008,27.018298 C4.290775,27.664979 4.273418,28.510526 4.614116,29.20184 C5.217652,30.428254 6.184699,30.991125 6.944947,31.2495 C7.562369,31.458779 7.973488,32.02165 8.06325,32.667339 C8.137638,33.202934 8.340966,33.847136 8.829449,34.44373 C9.554486,35.329942 10.908351,35.692956 11.767287,35.838261 C12.286021,35.926039 12.736318,36.244421 13.007091,36.695709 L13.344814,37.25858 C14.278634,38.814782 15.701432,40.018383 17.391533,40.68143 L17.399963,40.684902 C18.641751,41.172393 19.416876,42.416164 19.306782,43.745233 L18.503885,53.454384 C18.301549,55.901756 20.233163,58 22.68847,58 L29.969589,58 L30.154072,58 L37.434695,58 C39.890498,58 41.822112,55.901756 41.619776,53.45488 L40.81688,43.745233 C40.706785,42.416164 41.48191,41.172393 42.723698,40.684902 L42.732128,40.68143 C44.421733,40.018383 45.844531,38.814782 46.778847,37.25858 L47.098221,36.725465 C47.3804,36.255331 47.849542,35.926039 48.3896,35.83231 C49.249528,35.683534 50.578102,35.319031 51.294212,34.44373 C51.852124,33.761838 52.038095,33.017956 52.084711,32.444671 C52.127361,31.918002 52.468059,31.458283 52.975882,31.312482 C53.758942,31.088325 54.850465,30.540332 55.509545,29.20184 C55.848755,28.513005 55.832886,27.671426 55.740644,27.025737 C55.648403,26.382031 55.901819,25.742788 56.409642,25.336132 C57.385616,24.554064 58.707247,23.322195 57.937081,22.913556 C56.067457,21.921713 57.937081,20.557929 57.937081,20.557929 C57.937081,20.557929 60.034828,18.698223 59.228956,17.334439 L59.228956,17.334439 L59.228956,17.334439 Z" id="Page-1"></path>
                </g>
            </g>
        </g>
    </g>
</svg>