<svg width="60" height="60" viewBox="0 0 60 60" xmlns="http://www.w3.org/2000/svg"><title>Page-1</title><path d="M59.23 18.334c-1.09-1.842-20.334 8.307-20.334 8.307s-2.426 1.04-3.223-.37c-1.054-1.86.496-3.34.496-3.34s4.63-4.34 5.45-7.066c1.07-3.554-.06-6.633-.06-6.633-.19-1.922-2.98-2.42-3.1-3.162-.13-.742-.33-2.196-1.68-2.85-2.17-1.054-2.73.06-3.72-.25C32.58 2.81 32.8 1.3 30.153 1h-.183c-2.65.3-2.43 1.808-2.92 1.96-.99.31-1.55-.805-3.72.25-1.35.653-1.55 2.107-1.677 2.85-.124.744-2.914 1.24-3.1 3.162 0 0-1.156 3.657-.06 6.633.98 2.676 5.453 7.067 5.453 7.067s1.55 1.487.496 3.347c-.797 1.4-3.224.37-3.224.37S1.98 16.49.895 18.33c-.806 1.37 1.29 3.23 1.29 3.23s1.81 1.673 0 2.355c-.79.298.684 1.794 1.55 2.47.495.39.737 1.013.647 1.634-.093.64-.11 1.49.23 2.18a3.962 3.962 0 0 0 2.33 2.042c.618.21 1.03.77 1.12 1.416.074.536.277 1.18.765 1.777.72.886 2.075 1.25 2.934 1.394a1.8 1.8 0 0 1 1.24.86l.34.56a8.22 8.22 0 0 0 4.046 3.42l.01.005a3.02 3.02 0 0 1 1.905 3.06l-.802 9.71A4.2 4.2 0 0 0 22.683 59H37.43a4.2 4.2 0 0 0 4.187-4.545l-.804-9.71a3.02 3.02 0 0 1 1.907-3.06l.01-.004a8.225 8.225 0 0 0 4.047-3.42l.314-.53c.286-.47.756-.8 1.296-.89.86-.15 2.187-.512 2.903-1.39a3.584 3.584 0 0 0 .79-2c.042-.524.383-.984.89-1.13.78-.224 1.873-.772 2.533-2.11.34-.69.323-1.53.23-2.176a1.827 1.827 0 0 1 .67-1.69c.976-.78 2.297-2.013 1.527-2.42-1.87-.993 0-2.357 0-2.357s2.095-1.86 1.29-3.223z" stroke="#201300" fill-rule="evenodd"/></svg>